# xmcd
#
# Track frame offsets:
#	150
#	19758
#	30961
#	43063
#	52927
#	65331
#	76982
#	89542
#	100457
#	110168
#	120918
#	131531
#	143227
#	154298
#	166555
#	176496
#	187552
#	202301
#	216041
#	226685
#
# Disc length: 3136 seconds
#
# Revision: 1
# Processed by: cddbd v1.5.2PL0 Copyright (c) Steve Scherf et al.
# Submitted via: audiograbber 1.83.01
#
DISCID=010c3e14
DTITLE=Marty Robbins - The Absolutely Essential 3 CD Collection
DYEAR=2018
DGENRE=Country
TTITLE0=El Paso
TTITLE1=Singing The Blues
TTITLE2=Ill Go On Alone
TTITLE3=Knee Deep In The Blues
TTITLE4=Tomorrow You'll Be Gone
TTITLE5=Pretty Words
TTITLE6=I Couldn't Keep From Crying
TTITLE7=Aloha Oe (Farewell To Thee)
TTITLE8=Call Me Up (And I'll Come Calling On You)
TTITLE9=Time Goes By
TTITLE10=This Broken Heart Of Mine
TTITLE11=That's All Right
TTITLE12=Maybelline
TTITLE13=Pretty Mama
TTITLE14=Mean Mama Blue
TTITLE15=I Can't Quit (I've Gone Too Far)
TTITLE16=Tennessee Toddy
TTITLE17=The Same Two Lips
TTITLE18=Please Don't Blame Me
TTITLE19=Teen-Age Dream
EXTD=
EXTT0=
EXTT1=
EXTT2=
EXTT3=
EXTT4=
EXTT5=
EXTT6=
EXTT7=
EXTT8=
EXTT9=
EXTT10=
EXTT11=
EXTT12=
EXTT13=
EXTT14=
EXTT15=
EXTT16=
EXTT17=
EXTT18=
EXTT19=
PLAYORDER=
